<svg width="19" height="21" viewBox="0 0 19 21" fill="none" xmlns="http://www.w3.org/2000/svg">
<path d="M3.17433 16.3333C2.77329 16.3333 2.42997 16.1905 2.14438 15.9049C1.85879 15.6193 1.716 15.276 1.716 14.875V6.12498C1.716 5.72394 1.85879 5.38062 2.14438 5.09503C2.42997 4.80944 2.77329 4.66665 3.17433 4.66665H11.9243C12.3254 4.66665 12.6687 4.80944 12.9543 5.09503C13.2399 5.38062 13.3827 5.72394 13.3827 6.12498V9.40623L16.2993 6.48956V14.5104L13.3827 11.5937V14.875C13.3827 15.276 13.2399 15.6193 12.9543 15.9049C12.6687 16.1905 12.3254 16.3333 11.9243 16.3333H3.17433ZM3.17433 14.875H11.9243V6.12498H3.17433V14.875Z" fill="#64748B"/>
</svg>
