<svg width="11" height="12" viewBox="0 0 11 12" fill="none" xmlns="http://www.w3.org/2000/svg">
<path d="M4.8409 10.5626V9.72923C3.97285 9.63201 3.22805 9.27263 2.60653 8.6511C1.985 8.02957 1.62562 7.28478 1.5284 6.41673H0.695068V5.58339H1.5284C1.62562 4.71534 1.985 3.97055 2.60653 3.34902C3.22805 2.72749 3.97285 2.36812 4.8409 2.27089V1.43756H5.67424V2.27089C6.54229 2.36812 7.28708 2.72749 7.90861 3.34902C8.53014 3.97055 8.88951 4.71534 8.98674 5.58339H9.82007V6.41673H8.98674C8.88951 7.28478 8.53014 8.02957 7.90861 8.6511C7.28708 9.27263 6.54229 9.63201 5.67424 9.72923V10.5626H4.8409ZM5.25757 8.91673C5.25757 8.91673 5.45896 8.91673 5.86174 8.91673C6.26451 8.91673 6.75062 8.63201 7.32007 8.06256C7.88951 7.49312 8.17424 6.80562 8.17424 6.00006C8.17424 5.19451 7.88951 4.50701 7.32007 3.93756C6.75062 3.36812 6.06312 3.08339 5.25757 3.08339C4.45201 3.08339 3.76451 3.36812 3.19507 3.93756C2.62562 4.50701 2.3409 5.19451 2.3409 6.00006C2.3409 6.80562 2.62562 7.49312 3.19507 8.06256C3.76451 8.63201 4.45201 8.91673 5.25757 8.91673ZM5.25757 7.66673C5.25757 7.66673 5.14299 7.66673 4.91382 7.66673C4.68465 7.66673 4.40687 7.50353 4.08049 7.17714C3.7541 6.85076 3.5909 6.45839 3.5909 6.00006C3.5909 5.54173 3.7541 5.14937 4.08049 4.82298C4.40687 4.49659 4.79924 4.33339 5.25757 4.33339C5.7159 4.33339 6.10826 4.49659 6.43465 4.82298C6.76104 5.14937 6.92424 5.54173 6.92424 6.00006C6.92424 6.45839 6.76104 6.85076 6.43465 7.17714C6.10826 7.50353 5.7159 7.66673 5.25757 7.66673ZM5.25757 6.83339C5.25757 6.83339 5.31486 6.83339 5.42944 6.83339C5.54403 6.83339 5.68292 6.7518 5.84611 6.5886C6.0093 6.42541 6.0909 6.22923 6.0909 6.00006C6.0909 5.77089 6.0093 5.57471 5.84611 5.41152C5.68292 5.24832 5.48674 5.16673 5.25757 5.16673C5.0284 5.16673 4.83222 5.24832 4.66903 5.41152C4.50583 5.57471 4.42424 5.77089 4.42424 6.00006C4.42424 6.22923 4.50583 6.42541 4.66903 6.5886C4.83222 6.7518 5.0284 6.83339 5.25757 6.83339Z" fill="#64748B"/>
</svg>
