<svg width="19" height="21" viewBox="0 0 19 21" fill="none" xmlns="http://www.w3.org/2000/svg">
<path d="M11.1951 17.0625L6.82013 15.5312L3.4295 16.8437C3.18644 16.9409 2.96162 16.9136 2.75502 16.7617C2.54842 16.6098 2.44513 16.4062 2.44513 16.151V5.94269C2.44513 5.7847 2.4907 5.64494 2.58184 5.52341C2.67299 5.40189 2.79756 5.31074 2.95554 5.24998L6.82013 3.93748L11.1951 5.46873L14.5858 4.15623C14.8288 4.05901 15.0536 4.08635 15.2602 4.23826C15.4668 4.39017 15.5701 4.59373 15.5701 4.84894V15.0573C15.5701 15.2153 15.5246 15.355 15.4334 15.4765C15.3423 15.5981 15.2177 15.6892 15.0597 15.75L11.1951 17.0625ZM10.466 15.276V6.74477L7.54929 5.72394V14.2552L10.466 15.276ZM11.9243 15.276L14.1118 14.5469V5.90623L11.9243 6.74477V15.276ZM3.90346 15.0937L6.09096 14.2552V5.72394L3.90346 6.4531V15.0937Z" fill="#64748B"/>
</svg>
