<svg width="23" height="27" viewBox="0 0 23 27" fill="none" xmlns="http://www.w3.org/2000/svg">
<path d="M2.81252 14.9062L10.3125 4.125V14.9062H2.81252ZM6.39846 13.0312H8.43752V10.1016L6.39846 13.0312ZM11.7188 14.9062C11.9063 14.4688 12.1094 13.7031 12.3281 12.6094C12.5469 11.5156 12.6563 10.4062 12.6563 9.28125C12.6563 8.15625 12.5508 7 12.3399 5.8125C12.1289 4.625 11.9219 3.75 11.7188 3.1875C12.6719 3.46875 13.6211 3.99219 14.5664 4.75781C15.5117 5.52344 16.3633 6.4375 17.1211 7.5C17.8789 8.5625 18.4961 9.73047 18.9727 11.0039C19.4492 12.2773 19.6875 13.5781 19.6875 14.9062H11.7188ZM14.1563 13.0312H17.625C17.3594 11.8281 16.9258 10.7266 16.3242 9.72656C15.7227 8.72656 15.086 7.875 14.4141 7.17188C14.4453 7.5 14.4727 7.83984 14.4961 8.19141C14.5196 8.54297 14.5313 8.90625 14.5313 9.28125C14.5313 10.0156 14.4961 10.6953 14.4258 11.3203C14.3555 11.9453 14.2656 12.5156 14.1563 13.0312ZM8.43752 20.0625C7.87502 20.0625 7.35158 19.9297 6.86721 19.6641C6.38283 19.3984 5.96877 19.0625 5.62502 18.6562C5.40627 18.8906 5.16799 19.1094 4.91018 19.3125C4.65236 19.5156 4.36721 19.6797 4.05471 19.8047C3.50783 19.3984 3.04299 18.8945 2.66018 18.293C2.27736 17.6914 2.01564 17.0312 1.87502 16.3125H20.625C20.4844 17.0312 20.2227 17.6914 19.8399 18.293C19.4571 18.8945 18.9922 19.3984 18.4453 19.8047C18.1328 19.6797 17.8477 19.5156 17.5899 19.3125C17.3321 19.1094 17.0938 18.8906 16.875 18.6562C16.5156 19.0625 16.0977 19.3984 15.6211 19.6641C15.1446 19.9297 14.625 20.0625 14.0625 20.0625C13.5 20.0625 12.9766 19.9297 12.4922 19.6641C12.0078 19.3984 11.5938 19.0625 11.25 18.6562C10.9063 19.0625 10.4922 19.3984 10.0078 19.6641C9.52346 19.9297 9.00002 20.0625 8.43752 20.0625ZM1.87502 23.8125V21.9375H2.81252C3.31252 21.9375 3.8008 21.8594 4.27736 21.7031C4.75393 21.5469 5.20314 21.3125 5.62502 21C6.04689 21.3125 6.49611 21.543 6.97268 21.6914C7.44924 21.8398 7.93752 21.9141 8.43752 21.9141C8.93752 21.9141 9.42189 21.8398 9.89064 21.6914C10.3594 21.543 10.8125 21.3125 11.25 21C11.6719 21.3125 12.1211 21.543 12.5977 21.6914C13.0742 21.8398 13.5625 21.9141 14.0625 21.9141C14.5625 21.9141 15.0469 21.8398 15.5156 21.6914C15.9844 21.543 16.4375 21.3125 16.875 21C17.3125 21.3125 17.7656 21.5469 18.2344 21.7031C18.7031 21.8594 19.1875 21.9375 19.6875 21.9375H20.625V23.8125H19.6875C19.2031 23.8125 18.7266 23.7539 18.2578 23.6367C17.7891 23.5195 17.3281 23.3438 16.875 23.1094C16.4219 23.3438 15.961 23.5195 15.4922 23.6367C15.0235 23.7539 14.5469 23.8125 14.0625 23.8125C13.5781 23.8125 13.1016 23.7539 12.6328 23.6367C12.1641 23.5195 11.7031 23.3438 11.25 23.1094C10.7969 23.3438 10.336 23.5195 9.86721 23.6367C9.39846 23.7539 8.92189 23.8125 8.43752 23.8125C7.95314 23.8125 7.47658 23.7539 7.00783 23.6367C6.53908 23.5195 6.07814 23.3438 5.62502 23.1094C5.17189 23.3438 4.71096 23.5195 4.24221 23.6367C3.77346 23.7539 3.29689 23.8125 2.81252 23.8125H1.87502Z" fill="#0EA5E9"/>
</svg>
