<svg width="15" height="18" viewBox="0 0 15 18" fill="none" xmlns="http://www.w3.org/2000/svg">
<path d="M1.25015 14.2188V13C1.55224 13 1.81005 12.9531 2.02359 12.8594C2.23713 12.7656 2.45328 12.6641 2.67203 12.5547C2.89078 12.4453 3.13297 12.3464 3.39859 12.2578C3.66422 12.1693 3.99234 12.125 4.38297 12.125C4.77359 12.125 5.09651 12.1693 5.35172 12.2578C5.60692 12.3464 5.8439 12.4453 6.06265 12.5547C6.2814 12.6641 6.50015 12.7656 6.7189 12.8594C6.93765 12.9531 7.19807 13 7.50015 13C7.80224 13 8.06265 12.9531 8.2814 12.8594C8.50015 12.7656 8.7189 12.6641 8.93765 12.5547C9.1564 12.4453 9.39599 12.3464 9.6564 12.2578C9.91682 12.1693 10.2423 12.125 10.633 12.125C11.0236 12.125 11.3491 12.1693 11.6095 12.2578C11.8699 12.3464 12.1095 12.4453 12.3283 12.5547C12.547 12.6641 12.7658 12.7656 12.9845 12.8594C13.2033 12.9531 13.4585 13 13.7502 13V14.2188C13.3543 14.2188 13.0236 14.1719 12.758 14.0781C12.4923 13.9844 12.2502 13.8828 12.0314 13.7734C11.8127 13.6641 11.5991 13.5651 11.3908 13.4766C11.1824 13.388 10.9272 13.3438 10.6252 13.3438C10.3335 13.3438 10.0809 13.388 9.86734 13.4766C9.6538 13.5651 9.44026 13.6641 9.22672 13.7734C9.01317 13.8828 8.77359 13.9844 8.50797 14.0781C8.24234 14.1719 7.9064 14.2188 7.50015 14.2188C7.0939 14.2188 6.75797 14.1719 6.49234 14.0781C6.22672 13.9844 5.98713 13.8828 5.77359 13.7734C5.56005 13.6641 5.34911 13.5651 5.14078 13.4766C4.93244 13.388 4.67984 13.3438 4.38297 13.3438C4.08609 13.3438 3.83088 13.388 3.61734 13.4766C3.4038 13.5651 3.18765 13.6641 2.9689 13.7734C2.75015 13.8828 2.50797 13.9844 2.24234 14.0781C1.97672 14.1719 1.64599 14.2188 1.25015 14.2188ZM1.25015 11.4375V10.2188C1.55224 10.2188 1.81005 10.1719 2.02359 10.0781C2.23713 9.98438 2.45328 9.88281 2.67203 9.77344C2.89078 9.66406 3.13297 9.5651 3.39859 9.47656C3.66422 9.38802 3.99234 9.34375 4.38297 9.34375C4.77359 9.34375 5.09651 9.38802 5.35172 9.47656C5.60692 9.5651 5.8439 9.66406 6.06265 9.77344C6.2814 9.88281 6.50015 9.98438 6.7189 10.0781C6.93765 10.1719 7.19807 10.2188 7.50015 10.2188C7.80224 10.2188 8.06265 10.1719 8.2814 10.0781C8.50015 9.98438 8.7189 9.88281 8.93765 9.77344C9.1564 9.66406 9.39599 9.5651 9.6564 9.47656C9.91682 9.38802 10.2397 9.34375 10.6252 9.34375C11.021 9.34375 11.3491 9.38802 11.6095 9.47656C11.8699 9.5651 12.1095 9.66406 12.3283 9.77344C12.547 9.88281 12.7658 9.98438 12.9845 10.0781C13.2033 10.1719 13.4585 10.2188 13.7502 10.2188V11.4375C13.3543 11.4375 13.0236 11.3906 12.758 11.2969C12.4923 11.2031 12.2502 11.1016 12.0314 10.9922C11.8127 10.8828 11.5991 10.7839 11.3908 10.6953C11.1824 10.6068 10.9272 10.5625 10.6252 10.5625C10.3231 10.5625 10.0653 10.6068 9.85172 10.6953C9.63817 10.7839 9.42463 10.8828 9.21109 10.9922C8.99755 11.1016 8.76057 11.2031 8.50015 11.2969C8.23974 11.3906 7.9064 11.4375 7.50015 11.4375C7.0939 11.4375 6.75797 11.3906 6.49234 11.2969C6.22672 11.2031 5.98713 11.1016 5.77359 10.9922C5.56005 10.8828 5.34911 10.7839 5.14078 10.6953C4.93244 10.6068 4.67984 10.5625 4.38297 10.5625C4.08609 10.5625 3.83088 10.6068 3.61734 10.6953C3.4038 10.7839 3.18765 10.8828 2.9689 10.9922C2.75015 11.1016 2.50797 11.2031 2.24234 11.2969C1.97672 11.3906 1.64599 11.4375 1.25015 11.4375ZM1.25015 8.65625V7.4375C1.55224 7.4375 1.81005 7.39062 2.02359 7.29688C2.23713 7.20312 2.45328 7.10156 2.67203 6.99219C2.89078 6.88281 3.13297 6.78385 3.39859 6.69531C3.66422 6.60677 3.99234 6.5625 4.38297 6.5625C4.77359 6.5625 5.09651 6.60677 5.35172 6.69531C5.60692 6.78385 5.8439 6.88281 6.06265 6.99219C6.2814 7.10156 6.50015 7.20312 6.7189 7.29688C6.93765 7.39062 7.19807 7.4375 7.50015 7.4375C7.80224 7.4375 8.06265 7.39062 8.2814 7.29688C8.50015 7.20312 8.7189 7.10156 8.93765 6.99219C9.1564 6.88281 9.39599 6.78385 9.6564 6.69531C9.91682 6.60677 10.2397 6.5625 10.6252 6.5625C11.021 6.5625 11.3491 6.60677 11.6095 6.69531C11.8699 6.78385 12.1095 6.88281 12.3283 6.99219C12.547 7.10156 12.7658 7.20312 12.9845 7.29688C13.2033 7.39062 13.4585 7.4375 13.7502 7.4375V8.65625C13.3543 8.65625 13.0236 8.60938 12.758 8.51562C12.4923 8.42188 12.2502 8.32031 12.0314 8.21094C11.8127 8.10156 11.5991 8.0026 11.3908 7.91406C11.1824 7.82552 10.9272 7.78125 10.6252 7.78125C10.3335 7.78125 10.0809 7.82552 9.86734 7.91406C9.6538 8.0026 9.44026 8.10156 9.22672 8.21094C9.01317 8.32031 8.77359 8.42188 8.50797 8.51562C8.24234 8.60938 7.9064 8.65625 7.50015 8.65625C7.0939 8.65625 6.75797 8.60938 6.49234 8.51562C6.22672 8.42188 5.98713 8.32031 5.77359 8.21094C5.56005 8.10156 5.34911 8.0026 5.14078 7.91406C4.93244 7.82552 4.67984 7.78125 4.38297 7.78125C4.08609 7.78125 3.83088 7.82552 3.61734 7.91406C3.4038 8.0026 3.18765 8.10156 2.9689 8.21094C2.75015 8.32031 2.50797 8.42188 2.24234 8.51562C1.97672 8.60938 1.64599 8.65625 1.25015 8.65625ZM1.25015 5.875V4.65625C1.55224 4.65625 1.81005 4.60938 2.02359 4.51562C2.23713 4.42188 2.45328 4.32031 2.67203 4.21094C2.89078 4.10156 3.13297 4.0026 3.39859 3.91406C3.66422 3.82552 3.99234 3.78125 4.38297 3.78125C4.77359 3.78125 5.09651 3.82552 5.35172 3.91406C5.60692 4.0026 5.8439 4.10156 6.06265 4.21094C6.2814 4.32031 6.50015 4.42188 6.7189 4.51562C6.93765 4.60938 7.19807 4.65625 7.50015 4.65625C7.80224 4.65625 8.06265 4.60938 8.2814 4.51562C8.50015 4.42188 8.7189 4.32031 8.93765 4.21094C9.1564 4.10156 9.39599 4.0026 9.6564 3.91406C9.91682 3.82552 10.2397 3.78125 10.6252 3.78125C11.021 3.78125 11.3491 3.82552 11.6095 3.91406C11.8699 4.0026 12.1095 4.10156 12.3283 4.21094C12.547 4.32031 12.7658 4.42188 12.9845 4.51562C13.2033 4.60938 13.4585 4.65625 13.7502 4.65625V5.875C13.3543 5.875 13.0236 5.82812 12.758 5.73438C12.4923 5.64062 12.2502 5.53906 12.0314 5.42969C11.8127 5.32031 11.5991 5.22135 11.3908 5.13281C11.1824 5.04427 10.9272 5 10.6252 5C10.3335 5 10.0809 5.04427 9.86734 5.13281C9.6538 5.22135 9.44026 5.32031 9.22672 5.42969C9.01317 5.53906 8.77359 5.64062 8.50797 5.73438C8.24234 5.82812 7.9064 5.875 7.50015 5.875C7.0939 5.875 6.75797 5.82812 6.49234 5.73438C6.22672 5.64062 5.98713 5.53906 5.77359 5.42969C5.56005 5.32031 5.34911 5.22135 5.14078 5.13281C4.93244 5.04427 4.67984 5 4.38297 5C4.08609 5 3.83088 5.04427 3.61734 5.13281C3.4038 5.22135 3.18765 5.32031 2.9689 5.42969C2.75015 5.53906 2.50797 5.64062 2.24234 5.73438C1.97672 5.82812 1.64599 5.875 1.25015 5.875Z" fill="#64748B"/>
</svg>
