<svg width="15" height="18" viewBox="0 0 15 18" fill="none" xmlns="http://www.w3.org/2000/svg">
<path d="M10.0001 6.5V4.625H5.00008V6.5H3.75008V3.375H11.2501V6.5H10.0001ZM2.50008 7.75C2.50008 7.75 2.55997 7.75 2.67976 7.75C2.79956 7.75 2.94799 7.75 3.12508 7.75H11.8751C12.0522 7.75 12.2006 7.75 12.3204 7.75C12.4402 7.75 12.5001 7.75 12.5001 7.75H11.2501H3.75008H2.50008ZM11.2501 9.3125C11.4272 9.3125 11.5756 9.2526 11.6954 9.13281C11.8152 9.01302 11.8751 8.86458 11.8751 8.6875C11.8751 8.51042 11.8152 8.36198 11.6954 8.24219C11.5756 8.1224 11.4272 8.0625 11.2501 8.0625C11.073 8.0625 10.9246 8.1224 10.8048 8.24219C10.685 8.36198 10.6251 8.51042 10.6251 8.6875C10.6251 8.86458 10.685 9.01302 10.8048 9.13281C10.9246 9.2526 11.073 9.3125 11.2501 9.3125ZM10.0001 13.375V10.875H5.00008V13.375H10.0001ZM11.2501 14.625H3.75008V12.125H1.25008V8.375C1.25008 7.84375 1.43237 7.39844 1.79695 7.03906C2.16153 6.67969 2.60424 6.5 3.12508 6.5H11.8751C12.4063 6.5 12.8516 6.67969 13.211 7.03906C13.5704 7.39844 13.7501 7.84375 13.7501 8.375V12.125H11.2501V14.625ZM12.5001 10.875V8.375C12.5001 8.19792 12.4402 8.04948 12.3204 7.92969C12.2006 7.8099 12.0522 7.75 11.8751 7.75H3.12508C2.94799 7.75 2.79956 7.8099 2.67976 7.92969C2.55997 8.04948 2.50008 8.19792 2.50008 8.375V10.875H3.75008V9.625H11.2501V10.875H12.5001Z" fill="#64748B"/>
</svg>
