<svg width="19" height="21" viewBox="0 0 19 21" fill="none" xmlns="http://www.w3.org/2000/svg">
<path d="M8.27843 11.9583H9.73676V9.77083H11.9243V8.3125H9.73676V6.125H8.27843V8.3125H6.09093V9.77083H8.27843V11.9583ZM9.00759 15.8594C10.4902 14.4983 11.5901 13.2617 12.3071 12.1497C13.0241 11.0378 13.3826 10.0503 13.3826 9.1875C13.3826 7.86285 12.9603 6.77821 12.1157 5.9336C11.271 5.08898 10.235 4.66667 9.00759 4.66667C7.78016 4.66667 6.74414 5.08898 5.89952 5.9336C5.0549 6.77821 4.63259 7.86285 4.63259 9.1875C4.63259 10.0503 4.9911 11.0378 5.70811 12.1497C6.42513 13.2617 7.52495 14.4983 9.00759 15.8594ZM9.00759 17.7917C7.051 16.1267 5.58962 14.5803 4.62348 13.1523C3.65733 11.7244 3.17426 10.4028 3.17426 9.1875C3.17426 7.36458 3.76063 5.91233 4.93337 4.83073C6.10612 3.74913 7.46419 3.20833 9.00759 3.20833C10.551 3.20833 11.9091 3.74913 13.0818 4.83073C14.2546 5.91233 14.8409 7.36458 14.8409 9.1875C14.8409 10.4028 14.3579 11.7244 13.3917 13.1523C12.4256 14.5803 10.9642 16.1267 9.00759 17.7917Z" fill="#64748B"/>
</svg>
