<svg width="12" height="15" viewBox="0 0 12 15" fill="none" xmlns="http://www.w3.org/2000/svg">
<path d="M2.00003 11.5C1.72503 11.5 1.48961 11.4021 1.29378 11.2063C1.09795 11.0104 1.00003 10.775 1.00003 10.5V4.50002C1.00003 4.22502 1.09795 3.9896 1.29378 3.79377C1.48961 3.59793 1.72503 3.50002 2.00003 3.50002H8.00003C8.27503 3.50002 8.51045 3.59793 8.70628 3.79377C8.90211 3.9896 9.00003 4.22502 9.00003 4.50002V6.75002L11 4.75002V10.25L9.00003 8.25002V10.5C9.00003 10.775 8.90211 11.0104 8.70628 11.2063C8.51045 11.4021 8.27503 11.5 8.00003 11.5H2.00003ZM2.00003 10.5H8.00003V4.50002H2.00003V10.5Z" fill="#0EA5E9"/>
</svg>
