<svg width="19" height="21" viewBox="0 0 19 21" fill="none" xmlns="http://www.w3.org/2000/svg">
<path d="M9.00763 17.0625C7.18471 17.0625 5.63523 16.4244 4.35919 15.1484C3.08315 13.8724 2.44513 12.3229 2.44513 10.5C2.44513 8.67705 3.08315 7.12757 4.35919 5.85153C5.63523 4.57549 7.18471 3.93747 9.00763 3.93747C9.17776 3.93747 9.34486 3.94355 9.50893 3.9557C9.67299 3.96785 9.83401 3.98608 9.992 4.01039C9.49374 4.36282 9.09573 4.82158 8.79799 5.38669C8.50025 5.95179 8.35138 6.56247 8.35138 7.21872C8.35138 8.31247 8.73419 9.24216 9.49981 10.0078C10.2654 10.7734 11.1951 11.1562 12.2889 11.1562C12.9573 11.1562 13.571 11.0073 14.13 10.7096C14.689 10.4119 15.1448 10.0139 15.4972 9.51559C15.5215 9.67358 15.5397 9.83461 15.5519 9.99867C15.564 10.1627 15.5701 10.3298 15.5701 10.5C15.5701 12.3229 14.9321 13.8724 13.6561 15.1484C12.38 16.4244 10.8305 17.0625 9.00763 17.0625ZM9.00763 15.6041C10.0771 15.6041 11.0371 15.3094 11.8878 14.72C12.7385 14.1306 13.3583 13.3619 13.7472 12.414C13.5042 12.4748 13.2611 12.5234 13.018 12.5599C12.775 12.5963 12.5319 12.6146 12.2889 12.6146C10.7941 12.6146 9.52108 12.0889 8.46986 11.0377C7.41865 9.98652 6.89304 8.71351 6.89304 7.21872C6.89304 6.97566 6.91127 6.73261 6.94773 6.48955C6.98419 6.2465 7.0328 6.00344 7.09356 5.76039C6.14565 6.14928 5.37698 6.76907 4.78757 7.61976C4.19816 8.47046 3.90346 9.43053 3.90346 10.5C3.90346 11.9097 4.40172 13.1128 5.39825 14.1093C6.39478 15.1059 7.5979 15.6041 9.00763 15.6041Z" fill="#94A3B8"/>
</svg>
