<svg width="19" height="21" viewBox="0 0 19 21" fill="none" xmlns="http://www.w3.org/2000/svg">
<path d="M3.17433 14.875C2.77329 14.875 2.42997 14.7322 2.14438 14.4466C1.85879 14.161 1.716 13.8177 1.716 13.4167V7.58333C1.716 7.18229 1.85879 6.83898 2.14438 6.55339C2.42997 6.2678 2.77329 6.125 3.17433 6.125H14.841C15.242 6.125 15.5854 6.2678 15.8709 6.55339C16.1565 6.83898 16.2993 7.18229 16.2993 7.58333V13.4167C16.2993 13.8177 16.1565 14.161 15.8709 14.4466C15.5854 14.7322 15.242 14.875 14.841 14.875H3.17433ZM3.17433 13.4167H14.841V7.58333H12.6535V10.5H11.1952V7.58333H9.73683V10.5H8.2785V7.58333H6.82016V10.5H5.36183V7.58333H3.17433V13.4167Z" fill="#64748B"/>
</svg>
