<svg width="19" height="21" viewBox="0 0 19 21" fill="none" xmlns="http://www.w3.org/2000/svg">
<path d="M7.58569 18.5208C7.2211 18.5208 6.88082 18.4388 6.56485 18.2747C6.24888 18.1107 5.9876 17.8767 5.781 17.5729L1.13256 10.7734L1.57006 10.3542C1.80096 10.1233 2.0744 9.98959 2.39037 9.95314C2.70635 9.91668 2.99194 9.98959 3.24714 10.1719L5.36173 11.6484V4.66668C5.36173 4.46008 5.43161 4.2869 5.57136 4.14715C5.71112 4.00739 5.8843 3.93751 6.09089 3.93751C6.29749 3.93751 6.47067 4.00739 6.61042 4.14715C6.75018 4.2869 6.82006 4.46008 6.82006 4.66668V14.4557L4.12214 12.5599L6.98412 16.7344C7.04489 16.8316 7.12996 16.9106 7.23933 16.9714C7.34871 17.0321 7.46416 17.0625 7.58569 17.0625H10.1195H12.6534C13.0544 17.0625 13.3978 16.9197 13.6833 16.6341C13.9689 16.3485 14.1117 16.0052 14.1117 15.6042V5.39584C14.1117 5.18925 14.1816 5.01607 14.3214 4.87631C14.4611 4.73656 14.6343 4.66668 14.8409 4.66668C15.0475 4.66668 15.2207 4.73656 15.3604 4.87631C15.5002 5.01607 15.5701 5.18925 15.5701 5.39584V15.6042C15.5701 16.4063 15.2845 17.0929 14.7133 17.6641C14.1421 18.2353 13.4555 18.5208 12.6534 18.5208H7.58569ZM8.27839 10.5V3.20834C8.27839 3.00175 8.34827 2.82857 8.48803 2.68881C8.62779 2.54906 8.80096 2.47918 9.00756 2.47918C9.21416 2.47918 9.38733 2.54906 9.52709 2.68881C9.66685 2.82857 9.73673 3.00175 9.73673 3.20834V10.5H8.27839ZM11.1951 10.5V3.93751C11.1951 3.73091 11.2649 3.55774 11.4047 3.41798C11.5445 3.27822 11.7176 3.20834 11.9242 3.20834C12.1308 3.20834 12.304 3.27822 12.4438 3.41798C12.5835 3.55774 12.6534 3.73091 12.6534 3.93751V10.5H11.1951Z" fill="#64748B"/>
</svg>
