<svg width="19" height="21" viewBox="0 0 19 21" fill="none" xmlns="http://www.w3.org/2000/svg">
<path d="M3.17426 16.3333V14.875H5.17947L4.8878 14.6198C4.25586 14.0608 3.81228 13.4227 3.55707 12.7057C3.30186 11.9887 3.17426 11.2656 3.17426 10.5365C3.17426 9.1875 3.57834 7.98741 4.3865 6.93619C5.19466 5.88498 6.24891 5.18923 7.54926 4.84895V6.3802C6.67426 6.69618 5.9694 7.23394 5.43468 7.99348C4.89995 8.75303 4.63259 9.60069 4.63259 10.5365C4.63259 11.0833 4.73589 11.615 4.94249 12.1315C5.14909 12.648 5.47113 13.125 5.90863 13.5625L6.09093 13.7448V11.9583H7.54926V16.3333H3.17426ZM10.4659 16.151V14.6198C11.3409 14.3038 12.0458 13.7661 12.5805 13.0065C13.1152 12.247 13.3826 11.3993 13.3826 10.4635C13.3826 9.91666 13.2793 9.38498 13.0727 8.86848C12.8661 8.35199 12.5441 7.875 12.1066 7.4375L11.9243 7.2552V9.04166H10.4659V4.66666H14.8409V6.125H12.8357L13.1274 6.3802C13.7229 6.97569 14.1573 7.62282 14.4308 8.32161C14.7042 9.02039 14.8409 9.73437 14.8409 10.4635C14.8409 11.8125 14.4368 13.0126 13.6287 14.0638C12.8205 15.115 11.7663 15.8108 10.4659 16.151Z" fill="#64748B"/>
</svg>
