<svg width="18" height="21" viewBox="0 0 18 21" fill="none" xmlns="http://www.w3.org/2000/svg">
<path d="M6.99929 17.7843L6.70774 15.4519C6.54982 15.3912 6.40101 15.3183 6.26132 15.2333C6.12162 15.1482 5.98495 15.0571 5.85133 14.9599L3.68296 15.871L1.67859 12.4089L3.55541 10.9876C3.54326 10.9026 3.53719 10.8206 3.53719 10.7416C3.53719 10.6627 3.53719 10.5807 3.53719 10.4956C3.53719 10.4106 3.53719 10.3286 3.53719 10.2496C3.53719 10.1707 3.54326 10.0887 3.55541 10.0037L1.67859 8.58237L3.68296 5.12027L5.85133 6.03135C5.98495 5.93417 6.12465 5.84306 6.27043 5.75803C6.4162 5.67299 6.56197 5.60011 6.70774 5.53937L6.99929 3.20701H11.008L11.2996 5.53937C11.4575 5.60011 11.6063 5.67299 11.746 5.75803C11.8857 5.84306 12.0224 5.93417 12.156 6.03135L14.3244 5.12027L16.3287 8.58237L14.4519 10.0037C14.4641 10.0887 14.4701 10.1707 14.4701 10.2496C14.4701 10.3286 14.4701 10.4106 14.4701 10.4956C14.4701 10.5807 14.4701 10.6627 14.4701 10.7416C14.4701 10.8206 14.458 10.9026 14.4337 10.9876L16.3105 12.4089L14.3061 15.871L12.156 14.9599C12.0224 15.0571 11.8827 15.1482 11.7369 15.2333C11.5911 15.3183 11.4454 15.3912 11.2996 15.4519L11.008 17.7843H6.99929ZM8.2748 16.3265H9.7143L9.96941 14.3951C10.346 14.2979 10.6952 14.1551 11.0171 13.9669C11.3391 13.7786 11.6336 13.5508 11.9009 13.2835L13.7048 14.0306L14.4155 12.7916L12.8484 11.6072C12.9092 11.4371 12.9517 11.2579 12.976 11.0696C13.0003 10.8813 13.0124 10.69 13.0124 10.4956C13.0124 10.3013 13.0003 10.1099 12.976 9.92166C12.9517 9.73337 12.9092 9.55419 12.8484 9.38412L14.4155 8.19972L13.7048 6.96065L11.9009 7.72596C11.6336 7.44656 11.3391 7.21272 11.0171 7.02443C10.6952 6.83614 10.346 6.6934 9.96941 6.59622L9.73253 4.66473H8.29302L8.03792 6.59622C7.66134 6.6934 7.31209 6.83614 6.99018 7.02443C6.66826 7.21272 6.37368 7.44049 6.10643 7.70774L4.3025 6.96065L3.59185 8.19972L5.15891 9.3659C5.09817 9.54812 5.05565 9.73033 5.03136 9.91255C5.00706 10.0948 4.99492 10.2891 4.99492 10.4956C4.99492 10.69 5.00706 10.8783 5.03136 11.0605C5.05565 11.2427 5.09817 11.4249 5.15891 11.6072L3.59185 12.7916L4.3025 14.0306L6.10643 13.2653C6.37368 13.5447 6.66826 13.7786 6.99018 13.9669C7.31209 14.1551 7.66134 14.2979 8.03792 14.3951L8.2748 16.3265ZM9.04011 13.0467C9.74467 13.0467 10.346 12.7976 10.844 12.2996C11.3421 11.8015 11.5911 11.2002 11.5911 10.4956C11.5911 9.79107 11.3421 9.18976 10.844 8.6917C10.346 8.19365 9.74467 7.94462 9.04011 7.94462C8.32339 7.94462 7.71904 8.19365 7.22706 8.6917C6.73508 9.18976 6.48909 9.79107 6.48909 10.4956C6.48909 11.2002 6.73508 11.8015 7.22706 12.2996C7.71904 12.7976 8.32339 13.0467 9.04011 13.0467Z" fill="#64748B"/>
</svg>
