<svg width="19" height="21" viewBox="0 0 19 21" fill="none" xmlns="http://www.w3.org/2000/svg">
<path d="M3.17407 15.6042V14.1458H4.63241V9.04166C4.63241 8.03298 4.93623 7.13671 5.54386 6.35285C6.1515 5.569 6.94143 5.05555 7.91366 4.81249V4.30207C7.91366 3.99825 8.01999 3.74001 8.23267 3.52733C8.44534 3.31466 8.70359 3.20832 9.00741 3.20832C9.31122 3.20832 9.56947 3.31466 9.78215 3.52733C9.99482 3.74001 10.1012 3.99825 10.1012 4.30207V4.81249C11.0734 5.05555 11.8633 5.569 12.4709 6.35285C13.0786 7.13671 13.3824 8.03298 13.3824 9.04166V14.1458H14.8407V15.6042H3.17407ZM9.00741 17.7917C8.60636 17.7917 8.26305 17.6489 7.97746 17.3633C7.69187 17.0777 7.54907 16.7344 7.54907 16.3333H10.4657C10.4657 16.7344 10.3229 17.0777 10.0374 17.3633C9.75176 17.6489 9.40845 17.7917 9.00741 17.7917ZM6.09074 14.1458H11.9241V9.04166C11.9241 8.23957 11.6385 7.55294 11.0673 6.98176C10.4961 6.41058 9.80949 6.12499 9.00741 6.12499C8.20532 6.12499 7.51869 6.41058 6.94751 6.98176C6.37633 7.55294 6.09074 8.23957 6.09074 9.04166V14.1458Z" fill="#64748B"/>
</svg>
