<svg width="19" height="21" viewBox="0 0 19 21" fill="none" xmlns="http://www.w3.org/2000/svg">
<path d="M6.82013 17.0624C6.82013 17.0624 6.6196 17.0624 6.21856 17.0624C5.81752 17.0624 5.33141 16.7768 4.76023 16.2057C4.18905 15.6345 3.90346 14.9479 3.90346 14.1458V8.18484C3.47811 8.02685 3.12872 7.76253 2.85528 7.39187C2.58184 7.02121 2.44513 6.5989 2.44513 6.12494C2.44513 5.5173 2.6578 5.00081 3.08315 4.57546C3.50849 4.15011 4.02499 3.93744 4.63263 3.93744C5.24026 3.93744 5.75676 4.15011 6.1821 4.57546C6.60745 5.00081 6.82013 5.5173 6.82013 6.12494C6.82013 6.5989 6.68341 7.02121 6.40997 7.39187C6.13653 7.76253 5.78714 8.02685 5.36179 8.18484V14.1458C5.36179 14.5468 5.50459 14.8901 5.79018 15.1757C6.07577 15.4613 6.41908 15.6041 6.82013 15.6041C7.22117 15.6041 7.56448 15.4613 7.85007 15.1757C8.13566 14.8901 8.27846 14.5468 8.27846 14.1458V6.85411C8.27846 6.05202 8.56405 5.36539 9.13523 4.79421C9.70641 4.22303 10.393 3.93744 11.1951 3.93744C11.9972 3.93744 12.6838 4.22303 13.255 4.79421C13.8262 5.36539 14.1118 6.05202 14.1118 6.85411V12.815C14.5371 12.973 14.8865 13.2374 15.16 13.608C15.4334 13.9787 15.5701 14.401 15.5701 14.8749C15.5701 15.4826 15.3575 15.9991 14.9321 16.4244C14.5068 16.8498 13.9903 17.0624 13.3826 17.0624C12.775 17.0624 12.2585 16.8498 11.8331 16.4244C11.4078 15.9991 11.1951 15.4826 11.1951 14.8749C11.1951 14.401 11.3318 13.9756 11.6053 13.5989C11.8787 13.2222 12.2281 12.9609 12.6535 12.815V6.85411C12.6535 6.45306 12.5107 6.10975 12.2251 5.82416C11.9395 5.53857 11.5962 5.39577 11.1951 5.39577C10.7941 5.39577 10.4508 5.53857 10.1652 5.82416C9.87959 6.10975 9.73679 6.45306 9.73679 6.85411V14.1458C9.73679 14.9479 9.4512 15.6345 8.88002 16.2057C8.30884 16.7768 7.62221 17.0624 6.82013 17.0624ZM4.63263 6.85411C4.83922 6.85411 5.0124 6.78423 5.15216 6.64447C5.29191 6.50471 5.36179 6.33154 5.36179 6.12494C5.36179 5.91834 5.29191 5.74516 5.15216 5.60541C5.0124 5.46565 4.83922 5.39577 4.63263 5.39577C4.42603 5.39577 4.25285 5.46565 4.11309 5.60541C3.97334 5.74516 3.90346 5.91834 3.90346 6.12494C3.90346 6.33154 3.97334 6.50471 4.11309 6.64447C4.25285 6.78423 4.42603 6.85411 4.63263 6.85411ZM13.3826 15.6041C13.5892 15.6041 13.7624 15.5342 13.9022 15.3945C14.0419 15.2547 14.1118 15.0815 14.1118 14.8749C14.1118 14.6683 14.0419 14.4952 13.9022 14.3554C13.7624 14.2157 13.5892 14.1458 13.3826 14.1458C13.176 14.1458 13.0029 14.2157 12.8631 14.3554C12.7233 14.4952 12.6535 14.6683 12.6535 14.8749C12.6535 15.0815 12.7233 15.2547 12.8631 15.3945C13.0029 15.5342 13.176 15.6041 13.3826 15.6041Z" fill="#64748B"/>
</svg>
