<svg width="11" height="12" viewBox="0 0 11 12" fill="none" xmlns="http://www.w3.org/2000/svg">
<path d="M5.25378 10.1594C4.6778 10.1594 4.13652 10.0501 3.62994 9.83153C3.12336 9.61294 2.6827 9.31628 2.30797 8.94154C1.93324 8.56681 1.63657 8.12615 1.41798 7.61957C1.19938 7.11299 1.09009 6.57171 1.09009 5.99573C1.09009 5.41975 1.19938 4.87847 1.41798 4.37189C1.63657 3.86531 1.93324 3.42465 2.30797 3.04992C2.6827 2.67518 3.12336 2.37852 3.62994 2.15993C4.13652 1.94133 4.6778 1.83204 5.25378 1.83204C5.82976 1.83204 6.37104 1.94133 6.87762 2.15993C7.38421 2.37852 7.82486 2.67518 8.1996 3.04992C8.57433 3.42465 8.87099 3.86531 9.08959 4.37189C9.30818 4.87847 9.41748 5.41975 9.41748 5.99573C9.41748 6.57171 9.30818 7.11299 9.08959 7.61957C8.87099 8.12615 8.57433 8.56681 8.1996 8.94154C7.82486 9.31628 7.38421 9.61294 6.87762 9.83153C6.37104 10.0501 5.82976 10.1594 5.25378 10.1594ZM5.25378 9.32668C6.18367 9.32668 6.97131 9.004 7.61668 8.35863C8.26205 7.71325 8.58474 6.92562 8.58474 5.99573C8.58474 5.06584 8.26205 4.27821 7.61668 3.63283C6.97131 2.98746 6.18367 2.66477 5.25378 2.66477C4.32389 2.66477 3.53626 2.98746 2.89089 3.63283C2.24551 4.27821 1.92283 5.06584 1.92283 5.99573C1.92283 6.92562 2.24551 7.71325 2.89089 8.35863C3.53626 9.004 4.32389 9.32668 5.25378 9.32668Z" fill="#22C55E"/>
</svg>
