<svg width="15" height="18" viewBox="0 0 15 18" fill="none" xmlns="http://www.w3.org/2000/svg">
<path d="M6.28123 15.875C5.96873 15.875 5.67707 15.8047 5.40623 15.6641C5.1354 15.5234 4.91144 15.3229 4.73436 15.0625L0.749985 9.23437L1.12498 8.875C1.3229 8.67708 1.55728 8.5625 1.82811 8.53125C2.09894 8.5 2.34373 8.5625 2.56248 8.71875L4.37498 9.98437V4C4.37498 3.82292 4.43488 3.67448 4.55467 3.55469C4.67446 3.43489 4.8229 3.375 4.99998 3.375C5.17707 3.375 5.32551 3.43489 5.4453 3.55469C5.56509 3.67448 5.62498 3.82292 5.62498 4V12.3906L3.31248 10.7656L5.76561 14.3437C5.81769 14.4271 5.89061 14.4948 5.98436 14.5469C6.07811 14.599 6.17707 14.625 6.28123 14.625H8.45311H10.625C10.9687 14.625 11.263 14.5026 11.5078 14.2578C11.7526 14.013 11.875 13.7187 11.875 13.375V4.625C11.875 4.44792 11.9349 4.29948 12.0547 4.17969C12.1745 4.05989 12.3229 4 12.5 4C12.6771 4 12.8255 4.05989 12.9453 4.17969C13.0651 4.29948 13.125 4.44792 13.125 4.625V13.375C13.125 14.0625 12.8802 14.651 12.3906 15.1406C11.901 15.6302 11.3125 15.875 10.625 15.875H6.28123ZM6.87498 9V2.75C6.87498 2.57292 6.93488 2.42448 7.05467 2.30469C7.17446 2.18489 7.3229 2.125 7.49998 2.125C7.67707 2.125 7.82551 2.18489 7.9453 2.30469C8.06509 2.42448 8.12498 2.57292 8.12498 2.75V9H6.87498ZM9.37498 9V3.375C9.37498 3.19792 9.43488 3.04948 9.55467 2.92969C9.67446 2.80989 9.8229 2.75 9.99998 2.75C10.1771 2.75 10.3255 2.80989 10.4453 2.92969C10.5651 3.04948 10.625 3.19792 10.625 3.375V9H9.37498Z" fill="#64748B"/>
</svg>
