<svg width="15" height="18" viewBox="0 0 15 18" fill="none" xmlns="http://www.w3.org/2000/svg">
<path d="M2.50014 14C2.15639 14 1.86212 13.8776 1.61732 13.6328C1.37253 13.388 1.25014 13.0938 1.25014 12.75V5.25C1.25014 4.90625 1.37253 4.61198 1.61732 4.36719C1.86212 4.1224 2.15639 4 2.50014 4H6.25014L7.50014 5.25H12.5001C12.8439 5.25 13.1382 5.3724 13.383 5.61719C13.6277 5.86198 13.7501 6.15625 13.7501 6.5H6.98451L5.73451 5.25H2.50014V12.75L4.00014 7.75H14.6876L13.0783 13.1094C12.9949 13.3802 12.8413 13.5964 12.6173 13.7578C12.3934 13.9193 12.146 14 11.8751 14H2.50014ZM3.81264 12.75H11.8751L13.0001 9H4.93764L3.81264 12.75Z" fill="#64748B"/>
</svg>
