<svg width="15" height="18" viewBox="0 0 15 18" fill="none" xmlns="http://www.w3.org/2000/svg">
<path d="M6.87508 12.75H8.12508V10.875H10.0001V9.625H8.12508V7.75H6.87508V9.625H5.00008V10.875H6.87508V12.75ZM3.75008 15.25C3.40633 15.25 3.11206 15.1276 2.86726 14.8828C2.62247 14.638 2.50008 14.3437 2.50008 14V4C2.50008 3.65625 2.62247 3.36198 2.86726 3.11719C3.11206 2.87239 3.40633 2.75 3.75008 2.75H8.75008L12.5001 6.5V14C12.5001 14.3437 12.3777 14.638 12.1329 14.8828C11.8881 15.1276 11.5938 15.25 11.2501 15.25H3.75008ZM8.12508 7.125V4H3.75008V14H11.2501V7.125H8.12508ZM3.75008 4V7.125V14V4Z" fill="#64748B"/>
</svg>
