<svg width="15" height="18" viewBox="0 0 15 18" fill="none" xmlns="http://www.w3.org/2000/svg">
<path d="M2.50014 12.75C2.15639 12.75 1.86212 12.6276 1.61732 12.3828C1.37253 12.138 1.25014 11.8437 1.25014 11.5V6.5C1.25014 6.15625 1.37253 5.86198 1.61732 5.61719C1.86212 5.3724 2.15639 5.25 2.50014 5.25H12.5001C12.8439 5.25 13.1382 5.3724 13.383 5.61719C13.6277 5.86198 13.7501 6.15625 13.7501 6.5V11.5C13.7501 11.8437 13.6277 12.138 13.383 12.3828C13.1382 12.6276 12.8439 12.75 12.5001 12.75H2.50014ZM2.50014 11.5H12.5001V6.5H10.6251V9H9.37514V6.5H8.12514V9H6.87514V6.5H5.62514V9H4.37514V6.5H2.50014V11.5Z" fill="#64748B"/>
</svg>
