<svg width="15" height="18" viewBox="0 0 15 18" fill="none" xmlns="http://www.w3.org/2000/svg">
<path d="M13.125 5.875V13.375C13.125 13.7188 13.0026 14.013 12.7578 14.2578C12.513 14.5026 12.2187 14.625 11.875 14.625H3.12495C2.7812 14.625 2.48693 14.5026 2.24214 14.2578C1.99735 14.013 1.87495 13.7188 1.87495 13.375V4.625C1.87495 4.28125 1.99735 3.98698 2.24214 3.74219C2.48693 3.4974 2.7812 3.375 3.12495 3.375H10.625L13.125 5.875ZM11.875 6.40625L10.0937 4.625H3.12495V13.375H11.875V6.40625ZM7.49995 12.75C7.49995 12.75 7.63016 12.75 7.89058 12.75C8.151 12.75 8.4635 12.5677 8.82808 12.2031C9.19266 11.8385 9.37495 11.3958 9.37495 10.875C9.37495 10.3542 9.19266 9.91146 8.82808 9.54688C8.4635 9.18229 8.02079 9 7.49995 9C6.97912 9 6.53641 9.18229 6.17183 9.54688C5.80725 9.91146 5.62495 10.3542 5.62495 10.875C5.62495 11.3958 5.80725 11.8385 6.17183 12.2031C6.53641 12.5677 6.97912 12.75 7.49995 12.75ZM3.74995 7.75H9.37495V5.25H3.74995V7.75ZM3.12495 6.40625V13.375V4.625V6.40625Z" fill="#64748B"/>
</svg>
