<svg width="15" height="18" viewBox="0 0 15 18" fill="none" xmlns="http://www.w3.org/2000/svg">
<path d="M2.37514 15.25H1.87514V14H2.37514C2.87514 14 3.3517 13.9453 3.80483 13.8359C4.25795 13.7266 4.76577 13.5521 5.32827 13.3125C5.7241 13.5104 6.07045 13.6745 6.36733 13.8047C6.6642 13.9349 7.04181 14 7.50014 14C7.95847 14 8.33608 13.9349 8.63295 13.8047C8.92983 13.6745 9.27618 13.5104 9.67202 13.3125C10.2241 13.5521 10.7319 13.7266 11.1955 13.8359C11.659 13.9453 12.1408 14 12.6408 14H13.1251V15.25H12.6408C12.1303 15.25 11.633 15.2031 11.1486 15.1094C10.6642 15.0156 10.1876 14.875 9.71889 14.6875C9.30222 14.8854 8.92202 15.026 8.57827 15.1094C8.23452 15.1927 7.87514 15.2344 7.50014 15.2344C7.12514 15.2344 6.76837 15.1927 6.42983 15.1094C6.09129 15.026 5.71368 14.8854 5.29702 14.6875C4.82827 14.875 4.3517 15.0156 3.86733 15.1094C3.38295 15.2031 2.88556 15.25 2.37514 15.25ZM7.50014 12.75C7.50014 12.75 7.34389 12.75 7.03139 12.75C6.71889 12.75 6.32827 12.5417 5.85952 12.125C5.39077 11.7083 5.15639 11.5 5.15639 11.5C4.87514 11.7812 4.56004 12.0208 4.21108 12.2187C3.86212 12.4167 3.48972 12.5573 3.09389 12.6406L1.76577 8.375C1.71368 8.19792 1.72931 8.03646 1.81264 7.89062C1.89597 7.74479 2.02618 7.64583 2.20327 7.59375L3.12514 7.34375V5.25C3.12514 4.90625 3.24754 4.61198 3.49233 4.36719C3.73712 4.12239 4.03139 4 4.37514 4H5.93764V2.75H9.06264V4H10.6251C10.9689 4 11.2632 4.12239 11.508 4.36719C11.7527 4.61198 11.8751 4.90625 11.8751 5.25V7.34375L12.797 7.59375C12.9741 7.64583 13.1043 7.74479 13.1876 7.89062C13.271 8.03646 13.2866 8.19792 13.2345 8.375L11.9064 12.6406C11.5106 12.5573 11.1382 12.4167 10.7892 12.2187C10.4402 12.0208 10.1251 11.7812 9.84389 11.5C9.84389 11.5 9.60952 11.7083 9.14077 12.125C8.67202 12.5417 8.12514 12.75 7.50014 12.75ZM7.53139 11.5C7.85431 11.5 8.14077 11.3932 8.39077 11.1797C8.64077 10.9661 8.86993 10.7396 9.07827 10.5L9.79702 9.67187L10.4376 10.3281C10.5522 10.4427 10.6694 10.5495 10.7892 10.6484C10.909 10.7474 11.0262 10.849 11.1408 10.9531L11.8595 8.625L7.50014 7.48437L3.15639 8.625L3.87514 10.9531C3.98972 10.849 4.10691 10.7474 4.2267 10.6484C4.3465 10.5495 4.46368 10.4427 4.57827 10.3281L5.21889 9.67187L5.93764 10.5C6.14597 10.75 6.38035 10.9792 6.64077 11.1875C6.90118 11.3958 7.19806 11.5 7.53139 11.5ZM4.37514 7.01562L7.50014 6.1875L10.6251 7.01562V5.25H4.37514V7.01562Z" fill="#64748B"/>
</svg>
