<svg width="15" height="18" viewBox="0 0 15 18" fill="none" xmlns="http://www.w3.org/2000/svg">
<path d="M4.06241 14C3.11449 14 2.3046 13.6719 1.63272 13.0156C0.960846 12.3594 0.624908 11.5573 0.624908 10.6094C0.624908 9.79688 0.8697 9.07292 1.35928 8.4375C1.84887 7.80208 2.48949 7.39583 3.28116 7.21875C3.54158 6.26042 4.06241 5.48438 4.84366 4.89062C5.62491 4.29688 6.51033 4 7.49991 4C8.71866 4 9.75251 4.42448 10.6015 5.27344C11.4504 6.1224 11.8749 7.15625 11.8749 8.375C12.5937 8.45833 13.19 8.76823 13.664 9.30469C14.1379 9.84115 14.3749 10.4688 14.3749 11.1875C14.3749 11.9688 14.1015 12.6328 13.5546 13.1797C13.0077 13.7266 12.3437 14 11.5624 14H4.06241ZM4.06241 12.75H11.5624C11.9999 12.75 12.3697 12.599 12.6718 12.2969C12.9739 11.9948 13.1249 11.625 13.1249 11.1875C13.1249 10.75 12.9739 10.3802 12.6718 10.0781C12.3697 9.77604 11.9999 9.625 11.5624 9.625H10.6249V8.375C10.6249 7.51042 10.3202 6.77344 9.71085 6.16406C9.10147 5.55469 8.36449 5.25 7.49991 5.25C6.63533 5.25 5.89835 5.55469 5.28897 6.16406C4.6796 6.77344 4.37491 7.51042 4.37491 8.375H4.06241C3.45824 8.375 2.94262 8.58854 2.51553 9.01562C2.08845 9.44271 1.87491 9.95833 1.87491 10.5625C1.87491 11.1667 2.08845 11.6823 2.51553 12.1094C2.94262 12.5365 3.45824 12.75 4.06241 12.75Z" fill="#64748B"/>
</svg>
