<svg width="15" height="18" viewBox="0 0 15 18" fill="none" xmlns="http://www.w3.org/2000/svg">
<path d="M12.2499 14.625L8.31244 10.6875C7.99994 10.9375 7.64056 11.1354 7.23431 11.2812C6.82806 11.4271 6.39577 11.5 5.93744 11.5C4.80202 11.5 3.84108 11.1068 3.05463 10.3203C2.26817 9.53385 1.87494 8.57292 1.87494 7.4375C1.87494 6.30208 2.26817 5.34115 3.05463 4.55469C3.84108 3.76823 4.80202 3.375 5.93744 3.375C7.07286 3.375 8.03379 3.76823 8.82025 4.55469C9.60671 5.34115 9.99994 6.30208 9.99994 7.4375C9.99994 7.89583 9.92702 8.32812 9.78119 8.73438C9.63536 9.14062 9.43744 9.5 9.18744 9.8125L13.1249 13.75L12.2499 14.625ZM5.93744 10.25C6.71869 10.25 7.38275 9.97656 7.92963 9.42969C8.4765 8.88281 8.74994 8.21875 8.74994 7.4375C8.74994 6.65625 8.4765 5.99219 7.92963 5.44531C7.38275 4.89844 6.71869 4.625 5.93744 4.625C5.15619 4.625 4.49213 4.89844 3.94525 5.44531C3.39838 5.99219 3.12494 6.65625 3.12494 7.4375C3.12494 8.21875 3.39838 8.88281 3.94525 9.42969C4.49213 9.97656 5.15619 10.25 5.93744 10.25ZM5.31244 9.3125V8.0625H4.06244V6.8125H5.31244V5.5625H6.56244V6.8125H7.81244V8.0625H6.56244V9.3125H5.31244Z" fill="#64748B"/>
</svg>
