<svg width="15" height="18" viewBox="0 0 15 18" fill="none" xmlns="http://www.w3.org/2000/svg">
<path d="M12.2501 14.625L8.31262 10.6875C8.00012 10.9375 7.64075 11.1354 7.2345 11.2812C6.82825 11.4271 6.39596 11.5 5.93762 11.5C4.80221 11.5 3.84127 11.1068 3.05481 10.3203C2.26835 9.53385 1.87512 8.57292 1.87512 7.4375C1.87512 6.30208 2.26835 5.34115 3.05481 4.55469C3.84127 3.76823 4.80221 3.375 5.93762 3.375C7.07304 3.375 8.03398 3.76823 8.82043 4.55469C9.60689 5.34115 10.0001 6.30208 10.0001 7.4375C10.0001 7.89583 9.92721 8.32812 9.78137 8.73438C9.63554 9.14062 9.43762 9.5 9.18762 9.8125L13.1251 13.75L12.2501 14.625ZM5.93762 10.25C6.71887 10.25 7.38293 9.97656 7.92981 9.42969C8.47668 8.88281 8.75012 8.21875 8.75012 7.4375C8.75012 6.65625 8.47668 5.99219 7.92981 5.44531C7.38293 4.89844 6.71887 4.625 5.93762 4.625C5.15637 4.625 4.49231 4.89844 3.94543 5.44531C3.39856 5.99219 3.12512 6.65625 3.12512 7.4375C3.12512 8.21875 3.39856 8.88281 3.94543 9.42969C4.49231 9.97656 5.15637 10.25 5.93762 10.25ZM4.37512 8.0625V6.8125H7.50012V8.0625H4.37512Z" fill="#64748B"/>
</svg>
