<svg width="19" height="21" viewBox="0 0 19 21" fill="none" xmlns="http://www.w3.org/2000/svg">
<path d="M3.90346 17.0625C3.50242 17.0625 3.1591 16.9197 2.87351 16.6341C2.58792 16.3485 2.44513 16.0052 2.44513 15.6042V12.6875H3.90346V15.6042H6.82013V17.0625H3.90346ZM11.1951 17.0625V15.6042H14.1118V12.6875H15.5701V15.6042C15.5701 16.0052 15.4273 16.3485 15.1417 16.6341C14.8561 16.9197 14.5128 17.0625 14.1118 17.0625H11.1951ZM2.44513 8.3125V5.39583C2.44513 4.99479 2.58792 4.65148 2.87351 4.36589C3.1591 4.0803 3.50242 3.9375 3.90346 3.9375H6.82013V5.39583H3.90346V8.3125H2.44513ZM14.1118 8.3125V5.39583H11.1951V3.9375H14.1118C14.5128 3.9375 14.8561 4.0803 15.1417 4.36589C15.4273 4.65148 15.5701 4.99479 15.5701 5.39583V8.3125H14.1118ZM9.00763 14.1458C9.00763 14.1458 8.75546 14.1458 8.25111 14.1458C7.74677 14.1458 7.13914 13.7904 6.4282 13.0794C5.71726 12.3685 5.36179 11.5087 5.36179 10.5C5.36179 9.49132 5.71726 8.63151 6.4282 7.92057C7.13914 7.20964 7.99894 6.85417 9.00763 6.85417C10.0163 6.85417 10.8761 7.20964 11.5871 7.92057C12.298 8.63151 12.6535 9.49132 12.6535 10.5C12.6535 11.5087 12.298 12.3685 11.5871 13.0794C10.8761 13.7904 10.0163 14.1458 9.00763 14.1458ZM9.00763 12.6875C9.00763 12.6875 9.15953 12.6875 9.46335 12.6875C9.76717 12.6875 10.1318 12.4748 10.5571 12.0495C10.9825 11.6241 11.1951 11.1076 11.1951 10.5C11.1951 9.89236 10.9825 9.37587 10.5571 8.95052C10.1318 8.52517 9.61526 8.3125 9.00763 8.3125C8.39999 8.3125 7.88349 8.52517 7.45815 8.95052C7.0328 9.37587 6.82013 9.89236 6.82013 10.5C6.82013 11.1076 7.0328 11.6241 7.45815 12.0495C7.88349 12.4748 8.39999 12.6875 9.00763 12.6875Z" fill="#64748B"/>
</svg>
